<svg xmlns="http://www.w3.org/2000/svg" xmlns:xlink="http://www.w3.org/1999/xlink" width="235" height="NaN" viewBox="0 0 350 65" class="svg-inline replaced-svg">
  <defs>
    <path id="a" d="M0-.13h350V65H0z"/>
  </defs>
  <clipPath id="b">
    <use xlink:href="#a" overflow="visible"/>
  </clipPath>
  <path clip-path="url(#b)" d="M81.95 33.32h6.97c4.68 0 7.34-1.88 7.34-5.64 0-3.66-2.66-5.5-7.34-5.5h-6.97v11.14zm7.4-17.3c9.46 0 14.9 4.15 14.9 11.43 0 7.66-5.44 12.07-14.9 12.07h-7.4v9.4h-8.4v-32.9h15.8zm35.3 17.3c4.63 0 7.3-1.88 7.3-5.64 0-3.66-2.67-5.5-7.3-5.5h-7.77v11.14h7.77zm.8 6.2h-8.57v9.4h-8.4v-32.9h16.17c9.74 0 15.27 4.15 15.27 11.43 0 5.07-2.45 8.74-6.97 10.62l7.92 10.85h-9.52l-5.9-9.4z" fill="#00224D"/>
  <path fill="#00224D" d="M145.84 16.03h8.4V48.9h-8.4zm41.73 32.9l-18.04-21.1v21.1h-8.03v-32.9h7.66l18.1 21.14V16.03h7.97v32.9"/>
  <defs>
    <path id="c" d="M0-.13h350V65H0z"/>
  </defs>
  <clipPath id="d">
    <use xlink:href="#c" overflow="visible"/>
  </clipPath>
  <path clip-path="url(#d)" d="M234.63 21.25l-4.9 5.26c-2.55-2.55-6.22-4.24-9.68-4.24-6.38 0-11.33 4.36-11.33 10.1 0 5.73 4.95 10.14 11.33 10.14 3.35 0 7.03-1.5 9.7-3.86l4.93 4.74c-3.94 3.58-9.63 5.88-15.06 5.88-11.1 0-19.52-7.28-19.52-16.82 0-9.5 8.56-16.63 19.85-16.63 5.37 0 11 2.1 14.68 5.47" fill="#00224D"/>
  <path fill="#00224D" d="M238.57 16.03h8.4V48.9h-8.4z"/>
  <defs>
    <path id="e" d="M0-.13h350V65H0z"/>
  </defs>
  <clipPath id="f">
    <use xlink:href="#e" overflow="visible"/>
  </clipPath>
  <path clip-path="url(#f)" d="M262.64 33.32h6.97c4.7 0 7.37-1.88 7.37-5.64 0-3.66-2.66-5.5-7.34-5.5h-6.96v11.14zm7.4-17.3c9.46 0 14.9 4.15 14.9 11.43 0 7.66-5.44 12.07-14.9 12.07h-7.4v9.4h-8.4v-32.9h15.8z" fill="#00224D"/>
  <path d="M302.36 23.8l-5.9 12.75h11.75l-5.82-12.78zm-8.68 18.72l-2.92 6.4h-8.67l16.14-32.9h8.67l15.9 32.9h-8.97l-2.93-6.4h-17.23zm31.95-26.5v32.9H350v-6.5h-15.96v-26.4" fill="#00224D"/>
  <path fill="#cb0036" d="M7.13 35.18V6.75h42.04v29.4H28.2V55.2l-.1.1L7.14 35.2zM0-.12v38.17L28.1 65l28.2-26.95V-.13H0z"/>
</svg>
